<svg t="1706031456555" class="icon" viewBox="0 0 1024 1024" version="1.1" xmlns="http://www.w3.org/2000/svg"
  p-id="12947" width="200" height="200">
  <path
    d="M266.5 296.9H166.2c-11.4 0-20.6-9.3-20.6-20.6V242c0-11.3 9.3-20.6 20.6-20.6h100.4c11.3 0 20.6 9.3 20.6 20.6v34.3c-0.2 11.4-9.3 20.6-20.7 20.6z m0 0"
    fill="#FEC50D" p-id="12948"></path>
  <path
    d="M136.2 278.5h751.5c46.3 0 84.2 37.9 84.2 84.2v421.4c0 46.3-37.9 84.2-84.2 84.2H136.2c-46.3 0-84.2-37.9-84.2-84.2V362.7c0-46.3 37.9-84.2 84.2-84.2z"
    fill="#005B7D" p-id="12949"></path>
  <path d="M178.4 755.9H52V391h126.4c60.1 0 108.8 48.7 108.8 108.8v147.3c0 60.1-48.7 108.8-108.8 108.8z" fill="#44C0D9"
    p-id="12950"></path>
  <path d="M607.4 352.2c118.4 0 214.4 96 214.4 214.4S725.8 781 607.4 781 393 685 393 566.6s96-214.4 214.4-214.4z"
    fill="#FFFFFF" p-id="12951"></path>
  <path
    d="M607.4 332.8c64.6 0 123 26.2 165.3 68.5 42.3 42.3 68.5 100.8 68.5 165.3 0 64.6-26.2 123-68.5 165.3-42.3 42.3-100.8 68.5-165.3 68.5-64.6 0-123-26.2-165.3-68.5-42.3-42.3-68.5-100.8-68.5-165.3 0-64.6 26.2-123 68.5-165.3 42.3-42.3 100.7-68.5 165.3-68.5z m137.9 96c-35.3-35.3-84.1-57.1-137.9-57.1-53.8 0-102.6 21.8-137.9 57.1-35.3 35.3-57.1 84.1-57.1 137.9 0 53.8 21.8 102.6 57.1 137.9 35.3 35.3 84.1 57.1 137.9 57.1 53.8 0 102.6-21.8 137.9-57.1 35.3-35.3 57.1-84.1 57.1-137.9 0-53.9-21.8-102.6-57.1-137.9zM437.9 155.6h351.6l53.6 124.5H384.3z"
    fill="#FEC50D" p-id="12952"></path>
  <path
    d="M607.4 425.1c78.2 0 141.6 63.4 141.6 141.6 0 78.2-63.4 141.6-141.6 141.6-78.2 0-141.6-63.4-141.6-141.6 0.1-78.2 63.4-141.6 141.6-141.6z"
    fill="#005B7D" p-id="12953"></path>
  <path
    d="M493.6 680.5c-31.4-31.4-47.1-72.6-47.1-113.8s15.7-82.4 47.1-113.8 72.6-47.1 113.8-47.1 82.4 15.7 113.8 47.1c31.4 31.4 47.1 72.6 47.1 113.8s-15.7 82.4-47.1 113.8c-31.4 31.4-72.6 47.1-113.8 47.1s-82.4-15.7-113.8-47.1z m-8.3-113.8c0 31.3 11.9 62.5 35.8 86.4 23.8 23.8 55.1 35.8 86.4 35.8 31.3 0 62.5-11.9 86.4-35.8 23.8-23.8 35.8-55.1 35.8-86.4 0-31.3-11.9-62.5-35.8-86.4-23.8-23.8-55.1-35.8-86.4-35.8-31.3 0-62.5 11.9-86.4 35.8-23.9 23.8-35.8 55.1-35.8 86.4z"
    fill="#FEC50D" p-id="12954"></path>
  <path d="M518.2 198.4h190.9v38.8H518.2z" fill="#FFFFFF" p-id="12955"></path>
  <path
    d="M862.5 420.5c-19.3 0-35-15.7-35-35s15.7-35 35-35 35 15.7 35 35c0 19.2-15.7 35-35 35z m0 0M655.5 534.3c-10.8 0-19.7-8.9-19.7-19.7 0-10.8 8.9-19.7 19.7-19.7 10.9 0 19.7 8.9 19.7 19.7 0 10.9-8.8 19.7-19.7 19.7z m0 0"
    fill="#FFFFFF" p-id="12956"></path>
</svg>